<?xml version="1.0" encoding="UTF-8"?>
<svg xmlns="http://www.w3.org/2000/svg" viewBox="0 0 186.71 186.71">
  <defs>
    <style>
      .cls-1, .cls-2 {
        fill: #fc9627;
      }

      .cls-2 {
        mix-blend-mode: multiply;
      }

      .cls-3 {
        isolation: isolate;
      }

      .cls-4 {
        fill: #191919;
      }
    </style>
  </defs>
  <g class="cls-3">
    <g id="OBJECTS">
      <rect class="cls-4" width="186.71" height="186.71" rx="30.16" ry="30.16"/>
      <g>
        <path class="cls-1" d="m18.87,92.09l63.93,63.93,12.29-12.3,11.91,11.9,63.92-63.92-63.92-63.93-12.3,12.3-11.9-11.91-63.54,63.54-.39.39Zm56.71,22.11l22.5-22.5-22.5-22.5,6.89-6.89,29.4,29.4.39.39-29.4,29.4-7.28-7.28Zm2.28,12.29l-7.28,7.28-7.28-7.28,7.28-7.28,7.28,7.28Zm-7.28-17.3l-17.49-17.49,17.49-17.49,17.49,17.49-17.49,17.49Zm-4.47-49.48l-2.42-2.42,6.89-6.89,6.89,6.89-6.89,6.89-4.47-4.47h0Zm23.59-14.65l-7.22,7.22-6.89-6.89,7.22-7.22,6.89,6.89Zm5.39,88.65l-7.22-7.22,34.41-34.41-34.8-34.8,7.22-7.22,41.63,41.63.39.39-41.63,41.63Zm-12.29,12.29l-7.22-7.22,7.28-7.28,7.22,7.22-7.28,7.28Zm-53.91-53.91l.39-.39,29.44-29.44-.03.05,2.38,2.38,4.5,4.5-22.5,22.5,22.5,22.5-7.28,7.28-29.39-29.39Z"/>
        <rect class="cls-2" x="59.29" y="116.8" width="10.3" height="7.09" transform="translate(-66.23 80.81) rotate(-45)"/>
        <polygon class="cls-2" points="75.59 114.2 70.58 109.19 88.07 91.7 88.07 101.72 75.59 114.2"/>
        <rect class="cls-2" x="73.18" y="115.2" width="7.08" height="10.3" transform="translate(-62.63 89.5) rotate(-45)"/>
        <rect class="cls-2" x="85.44" y="127.51" width="7.08" height="10.21" transform="translate(-67.71 101.76) rotate(-45)"/>
        <rect class="cls-2" x="71.66" y="59.7" width="9.75" height="7.08" transform="translate(-22.31 72.64) rotate(-45)"/>
        <polygon class="cls-2" points="70.58 74.21 65.57 69.2 43.07 91.7 53.09 91.7 70.58 74.21"/>
        <polygon class="cls-2" points="87.49 57.29 82.48 62.3 94.9 74.72 100.23 70.03 87.49 57.29"/>
        <rect class="cls-2" x="72.99" y="46.47" width="7.09" height="9.75" transform="translate(-13.89 69.15) rotate(-45)"/>
      </g>
    </g>
  </g>
</svg>