<svg width="34" height="34" viewBox="0 0 34 34" fill="none" xmlns="http://www.w3.org/2000/svg">
<path d="M28.5078 0H5.49215C2.45892 0 0 2.45892 0 5.49215V28.5078C0 31.5411 2.45892 34 5.49215 34H28.5078C31.5411 34 34 31.5411 34 28.5078V5.49215C34 2.45892 31.5411 0 28.5078 0Z" fill="#191919"/>
<path d="M3.43628 16.7693L15.078 28.411L17.316 26.1712L19.4848 28.3382L31.1247 16.6983L19.4848 5.05664L17.245 7.29648L15.078 5.12766L3.5073 16.6983L3.43628 16.7693ZM13.7632 20.7956L17.8605 16.6983L13.7632 12.6011L15.0179 11.3464L20.3716 16.7002L20.4427 16.7712L15.0889 22.1249L13.7632 20.7992V20.7956ZM14.1784 23.0336L12.8527 24.3593L11.527 23.0336L12.8527 21.7079L14.1784 23.0336ZM12.8527 19.8833L9.66776 16.6983L12.8527 13.5134L16.0376 16.6983L12.8527 19.8833ZM12.0387 10.8729L11.598 10.4323L12.8527 9.17758L14.1074 10.4323L12.8527 11.6869L12.0387 10.8729ZM16.3345 8.20516L15.0197 9.51993L13.765 8.26525L15.0798 6.95049L16.3345 8.20516ZM17.316 24.3484L16.0012 23.0336L22.2673 16.7675L15.9302 10.4304L17.245 9.11566L24.8258 16.6965L24.8968 16.7675L17.316 24.3484ZM15.078 26.5864L13.7632 25.2716L15.0889 23.9459L16.4037 25.2607L15.078 26.5864ZM5.26093 16.7693L5.33195 16.6983L10.693 11.3373L10.6875 11.3464L11.1209 11.7798L11.9404 12.5992L7.84311 16.6965L11.9404 20.7938L10.6147 22.1195L5.26275 16.7675L5.26093 16.7693Z" fill="#FC9627"/>
<g style="mix-blend-mode:multiply">
<path d="M11.94 20.7948L10.6138 22.1211L11.5267 23.034L12.853 21.7078L11.94 20.7948Z" fill="#FC9627"/>
</g>
<g style="mix-blend-mode:multiply">
<path d="M13.7651 20.7965L12.8528 19.8842L16.0377 16.6992V18.5239L13.7651 20.7965Z" fill="#FC9627"/>
</g>
<g style="mix-blend-mode:multiply">
<path d="M13.7635 20.7973L12.8518 21.709L14.1781 23.0353L15.0897 22.1236L13.7635 20.7973Z" fill="#FC9627"/>
</g>
<g style="mix-blend-mode:multiply">
<path d="M16.002 23.0356L15.0903 23.9473L16.405 25.262L17.3167 24.3503L16.002 23.0356Z" fill="#FC9627"/>
</g>
<g style="mix-blend-mode:multiply">
<path d="M14.1073 10.432L12.8518 11.6875L13.7635 12.5992L15.0189 11.3437L14.1073 10.432Z" fill="#FC9627"/>
</g>
<g style="mix-blend-mode:multiply">
<path d="M12.8526 13.5139L11.9403 12.6016L7.84302 16.6988H9.66767L12.8526 13.5139Z" fill="#FC9627"/>
</g>
<g style="mix-blend-mode:multiply">
<path d="M15.9321 10.4316L15.0198 11.344L17.2815 13.6057L18.2521 12.7516L15.9321 10.4316Z" fill="#FC9627"/>
</g>
<g style="mix-blend-mode:multiply">
<path d="M13.7657 8.26479L12.8528 9.17773L14.1082 10.4332L15.0212 9.52025L13.7657 8.26479Z" fill="#FC9627"/>
</g>
</svg>
